<mxfile host="65bd71144e">
    <diagram id="lw6FeT4Sz2WTlQnbvO4H" name="Page-1">
        <mxGraphModel dx="1413" dy="783" grid="1" gridSize="10" guides="1" tooltips="1" connect="1" arrows="1" fold="1" page="1" pageScale="1" pageWidth="850" pageHeight="1100" math="0" shadow="0">
            <root>
                <mxCell id="0"/>
                <mxCell id="1" parent="0"/>
                <mxCell id="36" style="edgeStyle=none;html=1;entryX=1;entryY=0.25;entryDx=0;entryDy=0;" parent="1" target="9" edge="1">
                    <mxGeometry relative="1" as="geometry">
                        <mxPoint x="340" y="410" as="sourcePoint"/>
                        <Array as="points">
                            <mxPoint x="340" y="610"/>
                        </Array>
                    </mxGeometry>
                </mxCell>
                <mxCell id="40" style="edgeStyle=none;html=1;exitX=1;exitY=1;exitDx=0;exitDy=0;entryX=0;entryY=0.25;entryDx=0;entryDy=0;" parent="1" source="2" target="7" edge="1">
                    <mxGeometry relative="1" as="geometry">
                        <Array as="points">
                            <mxPoint x="520" y="610"/>
                        </Array>
                    </mxGeometry>
                </mxCell>
                <mxCell id="41" value="&lt;font style=&quot;font-size: 15px;&quot;&gt;User Data&lt;/font&gt;" style="edgeLabel;html=1;align=center;verticalAlign=middle;resizable=0;points=[];" parent="40" vertex="1" connectable="0">
                    <mxGeometry x="0.5671" y="2" relative="1" as="geometry">
                        <mxPoint y="12" as="offset"/>
                    </mxGeometry>
                </mxCell>
                <mxCell id="2" value="&lt;font style=&quot;font-size: 20px;&quot;&gt;0&lt;/font&gt;" style="swimlane;whiteSpace=wrap;html=1;rounded=1;arcSize=50;" parent="1" vertex="1">
                    <mxGeometry x="320" y="290" width="200" height="120" as="geometry"/>
                </mxCell>
                <mxCell id="4" value="&lt;font style=&quot;font-size: 25px;&quot;&gt;Stock Portal for &lt;br&gt;Spice Co.&lt;/font&gt;" style="text;html=1;align=center;verticalAlign=middle;resizable=0;points=[];autosize=1;strokeColor=none;fillColor=none;" parent="2" vertex="1">
                    <mxGeometry x="5" y="38" width="190" height="70" as="geometry"/>
                </mxCell>
                <mxCell id="5" value="&lt;font style=&quot;font-size: 20px;&quot;&gt;Customer&lt;/font&gt;" style="rounded=0;whiteSpace=wrap;html=1;fontSize=14;" parent="1" vertex="1">
                    <mxGeometry x="130" y="70" width="120" height="40" as="geometry"/>
                </mxCell>
                <mxCell id="6" value="&lt;div style=&quot;text-align: start;&quot;&gt;&lt;font style=&quot;background-color: initial; font-size: 20px;&quot;&gt;Manager&lt;/font&gt;&lt;span style=&quot;background-color: initial; color: rgba(0, 0, 0, 0); font-family: monospace; font-size: 0px; text-align: start;&quot;&gt;%3CmxGraphModel%3E%3Croot%3E%3CmxCell%20id%3D%220%22%2F%3E%3CmxCell%20id%3D%221%22%20parent%3D%220%22%2F%3E%3CmxCell%20id%3D%222%22%20value%3D%22%26lt%3Bfont%20style%3D%26quot%3Bfont-size%3A%2020px%3B%26quot%3B%26gt%3BCustomer%26lt%3B%2Ffont%26gt%3B%22%20style%3D%22rounded%3D0%3BwhiteSpace%3Dwrap%3Bhtml%3D1%3BfontSize%3D14%3B%22%20vertex%3D%221%22%20parent%3D%221%22%3E%3CmxGeometry%20x%3D%22130%22%20y%3D%2270%22%20width%3D%22120%22%20height%3D%2240%22%20as%3D%22geometry%22%2F%3E%3C%2FmxCell%3E%3C%2Froot%3E%3C%2FmxGraphModel%3E&lt;/span&gt;&lt;span style=&quot;background-color: initial; font-size: 0px;&quot;&gt;&lt;font face=&quot;monospace&quot; color=&quot;rgba(0, 0, 0, 0)&quot;&gt;https://music.youtube.com/watch?v=BXsjKvdEae4&amp;amp;si=lK1nP5Bo9hr5hulV&lt;/font&gt;&lt;/span&gt;&lt;/div&gt;" style="rounded=0;whiteSpace=wrap;html=1;fontSize=14;" parent="1" vertex="1">
                    <mxGeometry x="600" y="70" width="120" height="40" as="geometry"/>
                </mxCell>
                <mxCell id="7" value="&lt;div style=&quot;text-align: start;&quot;&gt;&lt;span style=&quot;font-size: 20px;&quot;&gt;Admin&lt;/span&gt;&lt;/div&gt;" style="rounded=0;whiteSpace=wrap;html=1;fontSize=14;" parent="1" vertex="1">
                    <mxGeometry x="600" y="600" width="120" height="40" as="geometry"/>
                </mxCell>
                <mxCell id="8" value="&lt;div style=&quot;text-align: start;&quot;&gt;&lt;span style=&quot;font-size: 20px;&quot;&gt;Inventory&lt;/span&gt;&lt;/div&gt;" style="rounded=0;whiteSpace=wrap;html=1;fontSize=14;" parent="1" vertex="1">
                    <mxGeometry x="360" y="600" width="120" height="40" as="geometry"/>
                </mxCell>
                <mxCell id="35" style="edgeStyle=none;html=1;exitX=1;exitY=0.5;exitDx=0;exitDy=0;entryX=0;entryY=1;entryDx=0;entryDy=0;" parent="1" source="9" target="2" edge="1">
                    <mxGeometry relative="1" as="geometry">
                        <Array as="points">
                            <mxPoint x="250" y="410"/>
                        </Array>
                    </mxGeometry>
                </mxCell>
                <mxCell id="9" value="&lt;div style=&quot;text-align: start;&quot;&gt;&lt;span style=&quot;font-size: 20px;&quot;&gt;Managment&lt;/span&gt;&lt;/div&gt;" style="rounded=0;whiteSpace=wrap;html=1;fontSize=14;" parent="1" vertex="1">
                    <mxGeometry x="130" y="600" width="120" height="40" as="geometry"/>
                </mxCell>
                <mxCell id="11" value="" style="endArrow=classic;html=1;fontSize=20;entryX=0.75;entryY=0;entryDx=0;entryDy=0;" parent="1" target="9" edge="1">
                    <mxGeometry width="50" height="50" relative="1" as="geometry">
                        <mxPoint x="320" y="400" as="sourcePoint"/>
                        <mxPoint x="450" y="340" as="targetPoint"/>
                        <Array as="points">
                            <mxPoint x="220" y="400"/>
                        </Array>
                    </mxGeometry>
                </mxCell>
                <mxCell id="22" value="&lt;font style=&quot;font-size: 15px;&quot;&gt;Order&lt;br&gt;Alerts&lt;br&gt;&lt;/font&gt;" style="edgeLabel;html=1;align=center;verticalAlign=middle;resizable=0;points=[];fontSize=20;" parent="11" vertex="1" connectable="0">
                    <mxGeometry x="0.6483" y="1" relative="1" as="geometry">
                        <mxPoint x="-25" y="-7" as="offset"/>
                    </mxGeometry>
                </mxCell>
                <mxCell id="12" value="" style="endArrow=classic;html=1;fontSize=20;entryX=0;entryY=0.75;entryDx=0;entryDy=0;exitX=0.25;exitY=0;exitDx=0;exitDy=0;" parent="1" source="9" target="2" edge="1">
                    <mxGeometry width="50" height="50" relative="1" as="geometry">
                        <mxPoint x="400" y="390" as="sourcePoint"/>
                        <mxPoint x="450" y="340" as="targetPoint"/>
                        <Array as="points">
                            <mxPoint x="160" y="380"/>
                        </Array>
                    </mxGeometry>
                </mxCell>
                <mxCell id="13" value="" style="endArrow=classic;html=1;fontSize=20;entryX=0;entryY=0.25;entryDx=0;entryDy=0;exitX=0.25;exitY=1;exitDx=0;exitDy=0;" parent="1" source="5" target="2" edge="1">
                    <mxGeometry width="50" height="50" relative="1" as="geometry">
                        <mxPoint x="400" y="390" as="sourcePoint"/>
                        <mxPoint x="450" y="340" as="targetPoint"/>
                        <Array as="points">
                            <mxPoint x="160" y="320"/>
                        </Array>
                    </mxGeometry>
                </mxCell>
                <mxCell id="14" value="" style="endArrow=classic;html=1;fontSize=20;entryX=0.75;entryY=1;entryDx=0;entryDy=0;exitX=-0.008;exitY=0.108;exitDx=0;exitDy=0;exitPerimeter=0;" parent="1" source="2" target="5" edge="1">
                    <mxGeometry width="50" height="50" relative="1" as="geometry">
                        <mxPoint x="400" y="390" as="sourcePoint"/>
                        <mxPoint x="450" y="340" as="targetPoint"/>
                        <Array as="points">
                            <mxPoint x="220" y="303"/>
                        </Array>
                    </mxGeometry>
                </mxCell>
                <mxCell id="15" value="" style="endArrow=classic;html=1;fontSize=20;entryX=1;entryY=0.75;entryDx=0;entryDy=0;exitX=0.07;exitY=-0.012;exitDx=0;exitDy=0;exitPerimeter=0;" parent="1" source="2" target="5" edge="1">
                    <mxGeometry width="50" height="50" relative="1" as="geometry">
                        <mxPoint x="400" y="390" as="sourcePoint"/>
                        <mxPoint x="450" y="340" as="targetPoint"/>
                        <Array as="points">
                            <mxPoint x="334" y="100"/>
                        </Array>
                    </mxGeometry>
                </mxCell>
                <mxCell id="16" value="" style="endArrow=classic;html=1;fontSize=20;exitX=1;exitY=0.25;exitDx=0;exitDy=0;entryX=0.25;entryY=0;entryDx=0;entryDy=0;" parent="1" source="5" target="2" edge="1">
                    <mxGeometry width="50" height="50" relative="1" as="geometry">
                        <mxPoint x="400" y="390" as="sourcePoint"/>
                        <mxPoint x="450" y="340" as="targetPoint"/>
                        <Array as="points">
                            <mxPoint x="370" y="80"/>
                        </Array>
                    </mxGeometry>
                </mxCell>
                <mxCell id="17" value="" style="endArrow=classic;html=1;fontSize=20;entryX=0;entryY=0.25;entryDx=0;entryDy=0;exitX=0.75;exitY=0;exitDx=0;exitDy=0;" parent="1" source="2" target="6" edge="1">
                    <mxGeometry width="50" height="50" relative="1" as="geometry">
                        <mxPoint x="400" y="390" as="sourcePoint"/>
                        <mxPoint x="450" y="340" as="targetPoint"/>
                        <Array as="points">
                            <mxPoint x="470" y="80"/>
                        </Array>
                    </mxGeometry>
                </mxCell>
                <mxCell id="18" value="" style="endArrow=classic;html=1;fontSize=20;exitX=0;exitY=0.75;exitDx=0;exitDy=0;entryX=0.91;entryY=-0.012;entryDx=0;entryDy=0;entryPerimeter=0;" parent="1" source="6" target="2" edge="1">
                    <mxGeometry width="50" height="50" relative="1" as="geometry">
                        <mxPoint x="400" y="390" as="sourcePoint"/>
                        <mxPoint x="510" y="300" as="targetPoint"/>
                        <Array as="points">
                            <mxPoint x="502" y="100"/>
                        </Array>
                    </mxGeometry>
                </mxCell>
                <mxCell id="19" value="" style="endArrow=classic;html=1;fontSize=20;exitX=0.5;exitY=1;exitDx=0;exitDy=0;entryX=0.5;entryY=0;entryDx=0;entryDy=0;" parent="1" source="2" target="8" edge="1">
                    <mxGeometry width="50" height="50" relative="1" as="geometry">
                        <mxPoint x="400" y="390" as="sourcePoint"/>
                        <mxPoint x="450" y="340" as="targetPoint"/>
                    </mxGeometry>
                </mxCell>
                <mxCell id="20" value="" style="endArrow=classic;html=1;fontSize=20;entryX=1;entryY=0.75;entryDx=0;entryDy=0;" parent="1" target="2" edge="1">
                    <mxGeometry width="50" height="50" relative="1" as="geometry">
                        <mxPoint x="630" y="600" as="sourcePoint"/>
                        <mxPoint x="450" y="340" as="targetPoint"/>
                        <Array as="points">
                            <mxPoint x="630" y="380"/>
                        </Array>
                    </mxGeometry>
                </mxCell>
                <mxCell id="38" value="&lt;font style=&quot;font-size: 15px;&quot;&gt;Oder&lt;br&gt;&amp;nbsp;Management&lt;/font&gt;" style="edgeLabel;html=1;align=center;verticalAlign=middle;resizable=0;points=[];" parent="20" vertex="1" connectable="0">
                    <mxGeometry x="0.6812" y="1" relative="1" as="geometry">
                        <mxPoint y="17" as="offset"/>
                    </mxGeometry>
                </mxCell>
                <mxCell id="21" value="" style="endArrow=classic;html=1;fontSize=20;exitX=0.75;exitY=0;exitDx=0;exitDy=0;" parent="1" source="7" edge="1">
                    <mxGeometry width="50" height="50" relative="1" as="geometry">
                        <mxPoint x="400" y="390" as="sourcePoint"/>
                        <mxPoint x="520" y="360" as="targetPoint"/>
                        <Array as="points">
                            <mxPoint x="690" y="360"/>
                        </Array>
                    </mxGeometry>
                </mxCell>
                <mxCell id="23" value="&lt;font style=&quot;font-size: 15px;&quot;&gt;Manage&lt;br&gt;Stock Status&lt;br&gt;&lt;/font&gt;" style="edgeLabel;html=1;align=center;verticalAlign=middle;resizable=0;points=[];fontSize=20;" parent="1" vertex="1" connectable="0">
                    <mxGeometry x="110" y="410" as="geometry">
                        <mxPoint x="4" y="10" as="offset"/>
                    </mxGeometry>
                </mxCell>
                <mxCell id="24" value="&lt;font style=&quot;font-size: 15px;&quot;&gt;Stock&lt;br&gt;Status&lt;br&gt;&lt;/font&gt;" style="edgeLabel;html=1;align=center;verticalAlign=middle;resizable=0;points=[];fontSize=20;" parent="1" vertex="1" connectable="0">
                    <mxGeometry x="450" y="540" as="geometry">
                        <mxPoint x="-2" as="offset"/>
                    </mxGeometry>
                </mxCell>
                <mxCell id="25" value="&lt;font style=&quot;font-size: 15px;&quot;&gt;&lt;br&gt;&lt;/font&gt;" style="edgeLabel;html=1;align=center;verticalAlign=middle;resizable=0;points=[];fontSize=20;" parent="1" vertex="1" connectable="0">
                    <mxGeometry x="580" y="540" as="geometry">
                        <mxPoint x="-24" y="2" as="offset"/>
                    </mxGeometry>
                </mxCell>
                <mxCell id="26" value="&lt;font style=&quot;font-size: 15px;&quot;&gt;Manage&amp;nbsp; All Databases&lt;br&gt;&lt;/font&gt;" style="edgeLabel;html=1;align=center;verticalAlign=middle;resizable=0;points=[];fontSize=20;" parent="1" vertex="1" connectable="0">
                    <mxGeometry x="620" y="300" as="geometry">
                        <mxPoint x="-2" as="offset"/>
                    </mxGeometry>
                </mxCell>
                <mxCell id="27" value="&lt;font style=&quot;font-size: 15px;&quot;&gt;Manage&lt;br&gt;Stock Status&lt;br&gt;&lt;/font&gt;" style="edgeLabel;html=1;align=center;verticalAlign=middle;resizable=0;points=[];fontSize=20;" parent="1" vertex="1" connectable="0">
                    <mxGeometry x="560" y="230" as="geometry">
                        <mxPoint x="4" y="10" as="offset"/>
                    </mxGeometry>
                </mxCell>
                <mxCell id="28" value="&lt;font style=&quot;font-size: 15px;&quot;&gt;Order Alerts&lt;br&gt;&lt;/font&gt;" style="edgeLabel;html=1;align=center;verticalAlign=middle;resizable=0;points=[];fontSize=20;" parent="1" vertex="1" connectable="0">
                    <mxGeometry x="530" y="60" as="geometry"/>
                </mxCell>
                <mxCell id="29" value="&lt;font style=&quot;font-size: 15px;&quot;&gt;Order&lt;br&gt;&lt;/font&gt;" style="edgeLabel;html=1;align=center;verticalAlign=middle;resizable=0;points=[];fontSize=20;" parent="1" vertex="1" connectable="0">
                    <mxGeometry x="300" y="60" as="geometry"/>
                </mxCell>
                <mxCell id="30" value="&lt;font style=&quot;font-size: 15px;&quot;&gt;Order&lt;br&gt;Reject&lt;br&gt;Invoice&lt;br&gt;&lt;/font&gt;" style="edgeLabel;html=1;align=center;verticalAlign=middle;resizable=0;points=[];fontSize=20;" parent="1" vertex="1" connectable="0">
                    <mxGeometry x="280" y="150" as="geometry"/>
                </mxCell>
                <mxCell id="31" value="&lt;font style=&quot;font-size: 15px;&quot;&gt;Invoice&lt;br&gt;&lt;/font&gt;" style="edgeLabel;html=1;align=center;verticalAlign=middle;resizable=0;points=[];fontSize=20;" parent="1" vertex="1" connectable="0">
                    <mxGeometry x="270" y="270" as="geometry"/>
                </mxCell>
                <mxCell id="32" value="&lt;font style=&quot;font-size: 15px;&quot;&gt;Payment&lt;br&gt;&lt;/font&gt;" style="edgeLabel;html=1;align=center;verticalAlign=middle;resizable=0;points=[];fontSize=20;" parent="1" vertex="1" connectable="0">
                    <mxGeometry x="250" y="339" as="geometry">
                        <mxPoint x="-16" y="-6" as="offset"/>
                    </mxGeometry>
                </mxCell>
                <mxCell id="33" value="" style="endArrow=classic;html=1;fontSize=20;entryX=1;entryY=1;entryDx=0;entryDy=0;exitX=1;exitY=0;exitDx=0;exitDy=0;" parent="1" source="2" target="6" edge="1">
                    <mxGeometry width="50" height="50" relative="1" as="geometry">
                        <mxPoint x="720" y="320" as="sourcePoint"/>
                        <mxPoint x="850" y="110" as="targetPoint"/>
                        <Array as="points">
                            <mxPoint x="720" y="290"/>
                            <mxPoint x="720" y="110"/>
                        </Array>
                    </mxGeometry>
                </mxCell>
                <mxCell id="34" value="" style="endArrow=classic;html=1;fontSize=20;entryX=1;entryY=0;entryDx=0;entryDy=0;" parent="1" target="6" edge="1">
                    <mxGeometry width="50" height="50" relative="1" as="geometry">
                        <mxPoint x="520" y="340" as="sourcePoint"/>
                        <mxPoint x="870" y="30" as="targetPoint"/>
                        <Array as="points">
                            <mxPoint x="760" y="340"/>
                            <mxPoint x="760" y="70"/>
                        </Array>
                    </mxGeometry>
                </mxCell>
                <mxCell id="39" value="&lt;font style=&quot;font-size: 15px;&quot;&gt;User &lt;br&gt;Management&lt;/font&gt;" style="edgeLabel;html=1;align=left;verticalAlign=middle;resizable=0;points=[];" parent="1" vertex="1" connectable="0">
                    <mxGeometry x="700" y="510" as="geometry">
                        <mxPoint x="-8" y="-2" as="offset"/>
                    </mxGeometry>
                </mxCell>
            </root>
        </mxGraphModel>
    </diagram>
</mxfile>